<svg width="1440" height="744" viewBox="0 0 1440 744" fill="none" xmlns="http://www.w3.org/2000/svg">
<mask id="mask0_1765_1900" style="mask-type:alpha" maskUnits="userSpaceOnUse" x="1174" y="0" width="266" height="419">
<rect x="1174" width="266" height="418.644" fill="#D9D9D9"/>
</mask>
<g mask="url(#mask0_1765_1900)">
<path d="M1211.6 251.578C1151.69 218.714 1168.83 128.387 1236.62 119.76L1240.57 119.257C1270.88 115.399 1295.26 92.46 1300.96 62.437L1301.7 58.527C1314.44 -8.6064 1405.65 -20.214 1434.8 41.5876L1436.5 45.1871C1449.53 72.8256 1478.89 88.9261 1509.2 85.0679L1513.15 84.5655C1580.93 75.9384 1620.16 159.092 1570.39 205.914L1567.49 208.641C1545.23 229.581 1538.99 262.471 1552.03 290.109L1553.72 293.709C1582.88 355.511 1515.91 418.51 1456 385.646L1452.51 383.732C1425.72 369.035 1392.51 373.262 1370.26 394.201L1367.36 396.928C1317.59 443.751 1236.98 399.533 1249.72 332.4L1250.46 328.49C1256.16 298.467 1241.88 268.189 1215.09 253.492L1211.6 251.578Z" fill="url(#paint0_linear_1765_1900)" fill-opacity="0.1"/>
<path d="M1211.6 251.578C1151.69 218.714 1168.83 128.387 1236.62 119.76L1240.57 119.257C1270.88 115.399 1295.26 92.46 1300.96 62.437L1301.7 58.527C1314.44 -8.6064 1405.65 -20.214 1434.8 41.5876L1436.5 45.1871C1449.53 72.8256 1478.89 88.9261 1509.2 85.0679L1513.15 84.5655C1580.93 75.9384 1620.16 159.092 1570.39 205.914L1567.49 208.641C1545.23 229.581 1538.99 262.471 1552.03 290.109L1553.72 293.709C1582.88 355.511 1515.91 418.51 1456 385.646L1452.51 383.732C1425.72 369.035 1392.51 373.262 1370.26 394.201L1367.36 396.928C1317.59 443.751 1236.98 399.533 1249.72 332.4L1250.46 328.49C1256.16 298.467 1241.88 268.189 1215.09 253.492L1211.6 251.578Z" fill="url(#paint1_linear_1765_1900)" fill-opacity="0.1"/>
</g>
<mask id="mask1_1765_1900" style="mask-type:alpha" maskUnits="userSpaceOnUse" x="0" y="308" width="361" height="436">
<rect y="308.133" width="361" height="435" fill="#D9D9D9"/>
</mask>
<g mask="url(#mask1_1765_1900)">
<path d="M-383.7 509.827C-526.396 522.311 -569.751 710.101 -446.97 783.876L-439.819 788.173C-384.909 821.166 -357.489 885.763 -371.899 948.181L-373.776 956.31C-405.998 1095.88 -240.796 1195.14 -132.691 1101.17L-126.395 1095.69C-78.0486 1053.67 -8.13915 1047.55 46.7704 1080.54L53.9216 1084.84C176.703 1158.62 322.158 1032.17 266.189 900.32L262.929 892.641C237.9 833.674 253.686 765.296 302.032 723.269L308.328 717.796C416.434 623.821 341.128 446.413 198.432 458.897L190.121 459.624C126.306 465.207 66.1527 429.064 41.1228 370.097L37.863 362.417C-18.1058 230.563 -210.102 247.361 -242.324 386.93L-244.201 395.059C-258.611 457.477 -311.574 503.517 -375.389 509.1L-383.7 509.827Z" fill="url(#paint2_linear_1765_1900)" fill-opacity="0.25"/>
</g>
<defs>
<linearGradient id="paint0_linear_1765_1900" x1="1265.63" y1="399.991" x2="1400.81" y2="258.715" gradientUnits="userSpaceOnUse">
<stop stop-color="#2A73F6"/>
<stop offset="0.936759" stop-color="#BBD7F4" stop-opacity="0"/>
</linearGradient>
<linearGradient id="paint1_linear_1765_1900" x1="1265.63" y1="399.991" x2="1400.81" y2="258.715" gradientUnits="userSpaceOnUse">
<stop stop-color="#0797FF"/>
<stop offset="0.936759" stop-color="#BBD7F4" stop-opacity="0"/>
</linearGradient>
<linearGradient id="paint2_linear_1765_1900" x1="-154.743" y1="270.668" x2="-14.6226" y2="655.857" gradientUnits="userSpaceOnUse">
<stop stop-color="#2A73F6"/>
<stop offset="0.936759" stop-color="#BBD7F4" stop-opacity="0"/>
</linearGradient>
</defs>
</svg>
