<svg width="40" height="41" viewBox="0 0 40 41" fill="none" xmlns="http://www.w3.org/2000/svg">
<g filter="url(#filter0_d_70_2248)">
<path fill-rule="evenodd" clip-rule="evenodd" d="M34.5948 3.60569C34.5948 2.76384 33.9123 2.08139 33.0705 2.08139H3.34657C2.50472 2.08139 1.82227 2.76385 1.82227 3.6057V11.0428C1.82227 11.8847 2.50472 12.5672 3.34657 12.5672H11.2515C11.6062 12.5672 11.9499 12.6909 12.2232 12.917L17.1648 17.0059C17.7287 17.4724 18.5445 17.4724 19.1083 17.0059L24.05 12.917C24.3233 12.6909 24.6669 12.5672 25.0217 12.5672H33.0705C33.9123 12.5672 34.5948 11.8847 34.5948 11.0428V3.60569ZM19.0756 23.3214C18.5376 23.7184 17.8036 23.7184 17.2656 23.3214L13.4092 20.4759C12.4029 19.7334 10.9799 20.4519 10.9799 21.7025V29.5218C10.9799 29.9829 11.1886 30.4192 11.5476 30.7086L18.1257 36.0102C18.1311 36.0146 18.1342 36.0211 18.1342 36.028V36.042C18.1342 36.0556 18.1499 36.0631 18.1605 36.0546C18.1664 36.0498 18.1748 36.0498 18.1807 36.0546C18.1913 36.0631 18.207 36.0556 18.207 36.042V36.028C18.207 36.0211 18.2101 36.0146 18.2155 36.0102L24.7936 30.7086C25.1526 30.4192 25.3613 29.9829 25.3613 29.5218V21.7025C25.3613 20.4519 23.9383 19.7334 22.932 20.4759L19.0756 23.3214Z" fill="url(#paint0_linear_70_2248)"/>
</g>
<defs>
<filter id="filter0_d_70_2248" x="0.297962" y="0.557087" width="38.8707" height="40.074" filterUnits="userSpaceOnUse" color-interpolation-filters="sRGB">
<feFlood flood-opacity="0" result="BackgroundImageFix"/>
<feColorMatrix in="SourceAlpha" type="matrix" values="0 0 0 0 0 0 0 0 0 0 0 0 0 0 0 0 0 0 127 0" result="hardAlpha"/>
<feOffset dx="1.5243" dy="1.5243"/>
<feGaussianBlur stdDeviation="1.5243"/>
<feComposite in2="hardAlpha" operator="out"/>
<feColorMatrix type="matrix" values="0 0 0 0 0 0 0 0 0 0 0 0 0 0 0 0 0 0 0.2 0"/>
<feBlend mode="normal" in2="BackgroundImageFix" result="effect1_dropShadow_70_2248"/>
<feBlend mode="normal" in="SourceGraphic" in2="effect1_dropShadow_70_2248" result="shape"/>
</filter>
<linearGradient id="paint0_linear_70_2248" x1="1.82227" y1="15.761" x2="34.5949" y2="15.6361" gradientUnits="userSpaceOnUse">
<stop offset="0.503153" stop-color="#0599FF"/>
<stop offset="0.505527" stop-color="#316BF4"/>
</linearGradient>
</defs>
</svg>
