<svg width="24" height="24" viewBox="0 0 24 24" fill="none" xmlns="http://www.w3.org/2000/svg">
<path d="M15.3352 12.8263C15.7972 12.8263 16.1718 12.4518 16.1718 11.9898C16.1718 11.5279 15.7972 11.1533 15.3352 11.1533H8.64315C8.18116 11.1533 7.80664 11.5279 7.80664 11.9898C7.80664 12.4518 8.18116 12.8263 8.64315 12.8263H15.3352Z" fill="black"/>
<path fill-rule="evenodd" clip-rule="evenodd" d="M11.99 0C5.36811 0 0 5.36811 0 11.99C0 18.6119 5.36811 23.98 11.99 23.98C18.6119 23.98 23.98 18.6119 23.98 11.99C23.98 5.36811 18.6119 0 11.99 0ZM1.67302 11.99C1.67302 6.2921 6.2921 1.67302 11.99 1.67302C17.6879 1.67302 22.307 6.2921 22.307 11.99C22.307 17.6879 17.6879 22.307 11.99 22.307C6.2921 22.307 1.67302 17.6879 1.67302 11.99Z" fill="black"/>
</svg>
