<svg width="25" height="25" viewBox="0 0 25 25" fill="none" xmlns="http://www.w3.org/2000/svg">
<g clip-path="url(#clip0_70_4038)">
<path fill-rule="evenodd" clip-rule="evenodd" d="M12.6307 23.4684C6.83553 23.4684 2.13767 18.769 2.13767 12.9754C2.13767 7.18176 6.83553 2.4824 12.6307 2.4824C18.4258 2.4824 23.1236 7.18176 23.1236 12.9754C23.1236 18.769 18.4258 23.4684 12.6307 23.4684ZM12.6307 0.983398C6.00733 0.983398 0.638672 6.34981 0.638672 12.9754C0.638672 19.601 6.00733 24.9674 12.6307 24.9674C19.254 24.9674 24.6226 19.601 24.6226 12.9754C24.6226 6.34981 19.254 0.983398 12.6307 0.983398ZM17.1277 12.2259H13.3802V8.47839C13.3802 8.06616 13.0451 7.72889 12.6307 7.72889C12.2162 7.72889 11.8812 8.06616 11.8812 8.47839V12.2259H8.13366C7.71919 12.2259 7.38416 12.5632 7.38416 12.9754C7.38416 13.3876 7.71919 13.7249 8.13366 13.7249H11.8812V17.4724C11.8812 17.8846 12.2162 18.2219 12.6307 18.2219C13.0451 18.2219 13.3802 17.8846 13.3802 17.4724V13.7249H17.1277C17.5421 13.7249 17.8771 13.3876 17.8771 12.9754C17.8771 12.5632 17.5421 12.2259 17.1277 12.2259Z" fill="black"/>
</g>
<defs>
<clipPath id="clip0_70_4038">
<rect width="23.984" height="23.984" fill="white" transform="translate(0.642578 0.982422)"/>
</clipPath>
</defs>
</svg>
