<svg width="58" height="49" viewBox="0 0 58 49" fill="none" xmlns="http://www.w3.org/2000/svg">
<path fill-rule="evenodd" clip-rule="evenodd" d="M21.0445 25.3496C21.1413 25.3998 21.1842 25.4221 21.2494 25.4555C20.9984 25.6368 20.7527 25.8142 20.504 25.994C20.5656 26.0235 20.6114 26.0456 20.6698 26.0734C20.4191 26.2506 20.1779 26.421 19.9247 26.5996C19.9786 26.6274 20.0218 26.6495 20.0699 26.6742C19.9335 26.7942 19.8047 26.9272 19.656 27.0319C19.5522 27.1048 19.419 27.1346 19.3028 27.191C19.1791 27.2511 19.3327 27.3902 19.194 27.5053C19.0617 27.6147 18.9131 27.705 18.7298 27.8067C18.8132 27.8519 18.8536 27.8741 18.9223 27.9116C18.6705 28.0935 18.4258 28.2702 18.1781 28.4492C18.2368 28.4762 18.2844 28.4977 18.3314 28.5193C18.0319 28.7524 17.7331 28.9851 17.4148 29.2331C17.4938 29.2728 17.5378 29.295 17.5824 29.3174C17.2863 29.5543 16.9881 29.7927 16.6764 30.0423C16.7654 30.0897 16.8069 30.1119 16.8396 30.1292C16.5355 30.3702 16.2389 30.6053 15.93 30.8499C16.0129 30.8875 16.0604 30.9091 16.1062 30.9299C15.8066 31.1639 15.5083 31.3972 15.1911 31.6452C15.2703 31.6844 15.315 31.7063 15.3672 31.7321C15.0707 31.9614 14.7741 32.1905 14.4657 32.4291C14.5319 32.4854 14.575 32.522 14.6469 32.5834C14.3638 32.7136 14.0534 32.788 13.909 33.0866C13.9498 33.1051 13.9973 33.1269 14.0539 33.1528C13.8031 33.3132 13.5552 33.4723 13.2884 33.643C13.3694 33.7125 13.4122 33.7494 13.4908 33.817C13.0526 33.9456 12.7321 34.2055 12.4793 34.5487C12.5261 34.5708 12.5725 34.5927 12.6389 34.6236C12.5837 34.6618 12.5436 34.7131 12.4995 34.7168C12.2498 34.737 12.1009 34.8476 11.9879 35.105C11.9756 35.1329 11.9312 35.1559 11.8981 35.1628C11.8487 35.1728 11.7682 35.146 11.7495 35.1709C11.6645 35.2858 11.5921 35.4297 11.4241 35.3938C11.2498 35.3567 11.1168 35.213 10.9356 35.1711C10.8947 35.1617 10.8775 35.0492 10.8575 35.0031C10.6759 35.011 10.5223 35.0177 10.2914 35.0277C10.5505 34.7698 10.7478 34.5736 10.967 34.3558C10.7548 34.3403 10.681 34.4415 10.5901 34.5663C10.5274 34.6521 10.3735 34.6709 10.2677 34.7166C10.0901 34.451 10.3102 34.3332 10.4141 34.2351C11.1138 33.5755 11.716 32.8291 12.3421 32.1053C13.0149 31.3275 13.6214 30.4905 14.3176 29.7354C14.7822 29.2311 15.2067 28.6924 15.6816 28.2017C16.2172 27.6484 16.6966 27.0434 17.2511 26.5105C17.6092 26.1662 17.9079 25.7705 18.2721 25.4279C18.6177 25.103 18.9535 24.7528 19.2703 24.399C19.6132 24.0158 19.9679 23.6451 20.3313 23.2843C21.0104 22.6099 21.6782 21.9242 22.3652 21.2568C22.817 20.8183 23.2531 20.3569 23.6961 19.9062C24.3431 19.2478 25.0224 18.6232 25.6613 17.9551C26.216 17.375 26.8477 16.8692 27.4201 16.3045C27.8956 15.8357 28.3911 15.3895 28.8761 14.9316C29.7469 14.1091 30.6172 13.286 31.4978 12.4739C32.0634 11.9524 32.6496 11.45 33.1967 10.9095C34.0147 10.1018 34.9052 9.37588 35.7416 8.59192C36.2415 8.12304 36.7414 7.65698 37.2597 7.20809C37.8937 6.65934 38.48 6.05429 39.1252 5.51975C40.0898 4.72039 41.0032 3.86528 41.9376 3.03305C42.6407 2.40705 43.3746 1.81523 44.0008 1.10605C44.087 1.00853 44.2338 0.964909 44.3418 0.902526C44.6029 1.16534 44.1497 1.26319 44.2815 1.51664C44.3554 1.44705 44.4108 1.3786 44.4812 1.33315C44.5553 1.28518 44.6437 1.25943 44.7796 1.2008C44.7852 1.33493 44.7891 1.42677 44.7931 1.51924C44.8881 1.53634 45.0182 1.46709 45.0758 1.64881C45.1048 1.73959 44.95 1.91457 45.1794 1.92838C45.1763 1.94416 45.1775 1.96291 45.1691 1.97494C45.1092 2.05935 45.0542 2.14869 44.9847 2.22455C44.6271 2.61565 44.2961 3.03805 43.8981 3.38295C43.3534 3.85523 42.8662 4.38426 42.3335 4.86625C41.5333 5.58998 40.7305 6.31066 39.9369 7.04132C39.4338 7.50455 38.9448 7.98316 38.4466 8.45752C38.5041 8.48372 38.5517 8.50572 38.5993 8.52773C38.592 8.54573 38.5899 8.57123 38.5773 8.57845C38.555 8.59142 37.9295 8.97821 37.8915 9.00989C37.6707 9.19365 37.4494 9.37719 37.2166 9.5703C37.3019 9.61238 37.3467 9.6345 37.4596 9.68998C37.3377 9.71841 37.2781 9.73729 37.2171 9.74499C37.1501 9.75352 37.0557 9.72397 37.0186 9.75907C36.7725 9.99008 36.5386 10.234 36.2995 10.4755C36.3577 10.5045 36.402 10.5264 36.5161 10.5833C36.3918 10.6108 36.3319 10.6285 36.2707 10.6363C36.204 10.6449 36.1103 10.6164 36.073 10.6516C35.8272 10.8824 35.5936 11.1258 35.3544 11.3667C35.4131 11.3963 35.4573 11.4185 35.5725 11.4765C35.4457 11.5031 35.3858 11.5198 35.3245 11.5274C35.2579 11.5358 35.1648 11.5091 35.1272 11.5443C34.8819 11.7746 34.6486 12.0176 34.4095 12.2582C34.4689 12.2884 34.5123 12.3105 34.6292 12.3697C34.4997 12.3957 34.4327 12.43 34.3798 12.4149C34.282 12.387 34.233 12.3989 34.1522 12.4792C33.7037 12.9253 33.2398 13.3556 32.7723 13.7994C32.833 13.8284 32.879 13.8503 32.9275 13.8734C32.8792 14.1208 32.538 13.7922 32.4788 14.109C32.4551 14.2358 32.2261 14.324 32.0721 14.4444C32.1474 14.4832 32.1904 14.5052 32.2317 14.5266C32.222 14.5528 32.2151 14.5841 32.1985 14.6088C32.1919 14.6187 31.7384 14.8025 31.7245 14.8156C31.3892 15.133 31.0539 15.4502 30.7123 15.7736C30.7831 15.8062 30.8307 15.8282 30.8796 15.8506C30.4887 16.0238 30.3288 16.1371 30.0518 16.4382C30.1004 16.4605 30.1477 16.4824 30.1948 16.5037C30.177 16.5307 30.1628 16.5794 30.1388 16.5849C29.5641 16.715 29.283 17.234 28.8562 17.559C28.6313 17.7303 28.4587 17.9701 28.262 18.1794C28.3172 18.2068 28.3616 18.2289 28.4084 18.2521C28.3789 18.2843 28.3588 18.3278 28.3321 18.3322C27.8947 18.406 27.6137 18.7405 27.3571 19.0297C27.0263 19.4028 26.5919 19.6716 26.3301 20.1107C26.3622 20.1265 26.4074 20.1485 26.4967 20.1922L25.7882 20.498C25.8062 20.5844 25.8168 20.6351 25.8303 20.6993C25.7719 20.9065 25.339 20.7644 25.412 21.1676C25.3156 21.2092 25.1988 21.2507 25.0912 21.3096C25.0373 21.3393 24.954 21.4175 24.964 21.4443C25.0077 21.5609 24.9596 21.5953 24.866 21.6513C24.7363 21.7283 24.4605 21.686 24.5531 21.9836C24.558 21.9997 24.4765 22.0455 24.4325 22.0731C24.2989 22.1574 24.044 22.1342 24.134 22.4141C23.9917 22.4908 23.8494 22.5673 23.7114 22.6415C23.699 22.7231 23.7155 22.8419 23.6686 22.8772C23.5551 22.9632 23.4122 23.0112 23.2811 23.0742C23.3705 23.3676 23.0806 23.3456 22.9602 23.4399C22.9562 23.4775 22.9474 23.4992 22.9542 23.5061C22.966 23.5181 22.9882 23.5193 23.0042 23.5286C23.0308 23.5439 23.0555 23.5621 23.1213 23.6057L22.4688 23.8874C22.5653 23.9379 22.6076 23.9598 22.6518 23.9831C22.6493 24.1967 22.3028 24.0517 22.3172 24.3086C22.3316 24.5646 22.0586 24.496 21.9364 24.6022C21.8067 24.7151 21.6779 24.8292 21.5298 24.9594C21.5314 24.9397 21.5237 24.9612 21.5305 24.9678C21.5425 24.9797 21.5646 24.981 21.5803 24.9902C21.6064 25.0055 21.631 25.0239 21.6962 25.0683L21.0445 25.3496Z" fill="black"/>
<path fill-rule="evenodd" clip-rule="evenodd" d="M48.7143 30.1428C50.6728 29.6393 50.28 29.553 50.2924 29.7162C50.4441 29.7077 50.5973 29.699 50.8245 29.6862C50.7176 29.8587 50.6503 29.9676 50.582 30.0775C50.6147 30.0931 50.6605 30.115 50.7065 30.137C50.691 30.1632 50.6805 30.2097 50.6568 30.2179C50.0704 30.4211 49.605 30.8525 49.0151 31.0606C48.4236 31.2693 47.8284 31.5001 47.2892 31.8148C46.85 32.0709 46.3983 32.2865 45.9425 32.5032C45.8019 32.5699 45.6334 32.4999 45.5013 32.671C45.4026 32.7992 45.1759 32.8286 45.0059 32.9019L44.4457 33.1437C44.2758 33.217 44.1059 33.2897 43.9364 33.3638C43.7675 33.4371 43.5988 33.5115 43.4314 33.5884C43.4191 33.5939 43.4169 33.6213 43.3925 33.6828C43.5608 33.6345 43.7027 33.5937 43.8448 33.5525C43.8534 33.5745 43.8619 33.5963 43.8706 33.6181C43.6954 33.699 43.5209 33.7816 43.3448 33.8599C43.1589 33.9428 42.9719 34.0224 42.7844 34.1015C42.7525 34.1151 42.706 34.1372 42.6842 34.1246C42.3872 33.9533 42.1888 34.076 41.9942 34.3134C41.9211 34.4023 41.7639 34.4221 41.645 34.4734C40.049 35.1623 38.4518 35.8486 36.8586 36.5438C36.6852 36.6195 36.4476 36.6206 36.3811 36.8652C36.3779 36.8761 36.3434 36.8912 36.3327 36.8861C36.1167 36.7794 36.0619 37.1014 35.9095 37.0614C35.7126 37.0101 35.6222 37.0728 35.5242 37.2268C35.4945 37.274 35.3615 37.27 35.2774 37.2646C35.1597 37.2569 35.1364 37.1861 35.2 37.0877C35.1734 37.0744 35.1451 37.048 35.1207 37.051C35.0876 37.0553 35.0343 37.0783 35.0307 37.1003C35.0197 37.1666 35.048 37.244 35.0247 37.3026C34.9939 37.3806 34.9431 37.4772 34.8752 37.5076C34.7581 37.56 34.5708 37.5246 34.5037 37.6033C34.3958 37.7298 34.3063 37.7585 34.1467 37.7618C34.038 37.7641 33.9402 37.9139 33.8233 37.9665C33.3526 38.179 32.8764 38.379 32.4134 38.5789C32.3339 38.5232 32.2668 38.4761 32.1999 38.4294C32.1597 38.5108 32.1197 38.5924 32.0447 38.7447C31.8681 38.8803 31.4427 38.8398 31.3843 39.2733C31.2944 39.2325 31.2111 39.1947 31.137 39.1611C30.7828 39.4476 30.4 39.6321 29.9533 39.6669C29.631 40.0263 29.1441 40.0445 28.7648 40.2838C28.7331 40.1862 28.7085 40.0707 28.694 40.0721C28.5126 40.0872 28.6004 40.2209 28.5978 40.3371L28.0582 40.57C28.0629 40.6559 28.0667 40.7241 28.0708 40.7964C28.042 40.7949 28.0067 40.8035 27.9861 40.7897C27.8256 40.6839 27.6341 40.6947 27.532 40.8171C27.293 41.104 26.9429 41.1578 26.6408 41.3088C26.3806 41.4388 26.1074 41.5426 25.8666 41.7341C26.037 41.68 26.2075 41.6262 26.3778 41.5719C26.0186 41.7658 25.7126 42.1476 25.2873 41.93C25.1037 42.0428 24.9642 42.15 24.8081 42.2207C24.3231 42.44 23.8317 42.6456 23.3532 42.8522C23.3606 42.9518 23.3653 43.0198 23.373 43.1214C23.237 43.0329 23.1263 42.9607 23.0156 42.8886C23.0414 43.0433 23.0236 43.223 22.8346 43.1857C22.6348 43.1463 22.5779 43.2571 22.4491 43.3462C22.2134 43.5089 21.9219 43.591 21.6744 43.7761C21.8094 43.7413 21.9445 43.7065 22.0866 43.6702C22.0798 43.7124 22.0837 43.7594 22.0696 43.7658C21.6976 43.9305 21.3301 44.1089 20.9478 44.2466C20.6658 44.3482 20.3476 44.3397 20.0826 44.5064C20.0396 44.5336 20.0001 44.5663 19.9786 44.6439C20.1211 44.5995 20.2634 44.5549 20.4059 44.5102C19.9989 44.738 19.6318 45.0343 19.1337 45.0605C18.9133 45.072 18.7009 45.2333 18.495 45.3864C18.5986 45.369 18.7023 45.3515 18.8093 45.3335C18.8042 45.3674 18.8089 45.4146 18.7947 45.4209C18.627 45.4975 18.4565 45.5678 18.2867 45.6397C18.103 45.4641 18.1047 45.842 17.9055 45.7604C17.7758 45.7075 17.6815 46.0042 17.4273 45.9154C17.2889 45.8674 17.0702 46.0504 16.909 46.1983C17.0488 46.1621 17.1887 46.1263 17.3373 46.0879C17.3216 46.1332 17.3199 46.1785 17.3012 46.187C17.0483 46.3006 16.7877 46.3985 16.5394 46.5216C16.0549 46.7615 15.551 46.9766 15.1067 47.2779C14.8672 47.4402 14.6156 47.561 14.3709 47.7039C14.1609 47.8262 13.9786 47.9976 14.0186 48.3281C13.9302 48.3662 13.7489 48.4859 13.7139 48.4525C13.561 48.3062 13.3229 48.3868 13.2049 48.2551C13.0934 48.1305 12.9941 48.1201 12.8444 48.1045C12.5424 48.0729 12.3773 47.8342 12.3903 47.5265C12.2928 47.4843 12.1941 47.4421 12.0976 47.4004C12.0847 47.3623 12.0551 47.3225 12.0642 47.2953C12.1614 46.9971 12.3367 46.7902 12.6246 46.6211C13.0963 46.3442 13.5175 45.9813 14.0385 45.7848C14.254 45.4799 14.6249 45.4481 14.9192 45.2816C15.1495 45.1516 15.3654 44.9951 15.5997 44.8735C15.8288 44.7545 16.1256 44.7181 16.2986 44.5493C16.5476 44.3066 16.846 44.1948 17.1448 44.092C17.5289 43.9599 17.8068 43.662 18.1751 43.5134C18.5522 43.3609 18.9676 43.2536 19.2871 43.0186C19.9037 42.5649 20.6607 42.4248 21.2929 42.0367C22.0766 41.5554 22.971 41.3083 23.7496 40.8468C24.798 40.2249 25.9506 39.856 27.0355 39.3292C27.1683 39.2648 27.3073 39.2128 27.4423 39.1523C27.556 39.1014 27.6953 39.079 27.7168 38.9188C27.8468 39.0535 27.9017 38.8199 28.0412 38.8517C28.1265 38.8712 28.2455 38.7032 28.3606 38.6391C28.4894 38.5678 28.6306 38.519 28.7664 38.4604L29.123 38.3065L29.5305 38.1306L29.938 37.9547L30.2945 37.8008C30.4303 37.7422 30.5628 37.6733 30.7029 37.6275C30.8685 37.5735 31.0028 37.4519 31.2165 37.4935C31.3194 37.5136 31.451 37.3112 31.5872 37.2477C32.0065 37.0533 32.4376 36.8844 32.857 36.6901C33.0132 36.6181 33.2243 36.6194 33.2857 36.3914C33.3257 36.2418 33.5239 36.5195 33.5855 36.295C33.6048 36.2242 33.8127 36.124 33.8517 36.1522C34.0724 36.3107 34.0774 35.9233 34.232 36.0129C34.4511 36.1395 34.4425 35.883 34.5573 35.8418C34.6222 35.8185 34.6931 35.8112 34.7611 35.7962C34.8803 35.7705 35.0872 35.7701 35.1035 35.714C35.1702 35.4853 35.4044 35.5802 35.5294 35.4495C35.6586 35.314 35.8837 35.268 36.069 35.188C39.3964 33.7511 42.7266 32.3197 46.0497 30.8725C46.4928 30.6795 46.9991 30.5931 47.3412 30.2011C47.6519 30.298 47.7825 29.9852 48.0165 29.8961C48.7413 29.6203 49.4461 29.2926 50.2077 28.9638C50.2164 29.0543 50.2502 29.1752 50.2254 29.1887C49.8801 29.3768 49.5744 29.6258 49.1984 29.7719C48.4405 30.0666 47.7008 30.4081 46.9548 30.733C46.928 30.7448 46.9147 30.788 46.895 30.8167C46.9363 30.819 46.9788 30.829 47.0185 30.8225C47.118 30.8059 47.2491 30.8832 47.2993 30.7089C47.3121 30.6636 47.4268 30.6478 47.4946 30.6186C48.478 30.1941 49.4612 29.7697 48.7143 30.1428C46.9508 30.9337 46.9449 30.9148 46.939 30.8961C46.763 30.9217 46.5833 30.9332 46.4122 30.9785C46.3215 31.0025 45.7905 31.2539 45.7085 31.2765C45.6385 31.2956 45.526 31.3149 45.5121 31.3592C45.4427 31.5789 45.238 31.5888 45.0797 31.6576C42.6693 32.7026 40.2574 33.7441 37.8431 34.7794C37.7014 34.8403 37.5723 34.9851 37.383 34.8997C37.3469 34.8834 37.2525 34.9086 37.2429 34.9351C37.1605 35.1691 36.9231 35.1567 36.7558 35.2509C36.4132 35.4435 36.0032 35.5028 35.7141 35.8129C35.6324 35.9005 35.4514 35.9032 35.3133 35.9294C35.0473 35.9797 34.7898 36.0445 34.6015 36.2579C34.5357 36.3324 34.3708 36.2307 34.3623 36.398C34.161 36.2902 33.9537 36.4112 33.8661 36.5195C33.7201 36.7004 33.5022 36.571 33.3745 36.7126C33.3516 36.7377 33.3071 36.7521 33.2982 36.7799C33.2559 36.9119 33.1863 36.916 33.0511 36.9038C32.9202 36.8921 32.7469 36.9476 32.6523 37.0372C32.5298 37.1534 32.3714 37.2706 32.2496 37.2961C32.0604 37.3359 31.9338 37.4473 31.7776 37.5218C30.5545 38.1038 29.265 38.5329 28.0866 39.2229C27.2069 39.7378 26.1984 39.9896 25.3157 40.5333C24.5127 41.0275 23.5668 41.2498 22.7536 41.7635C22.1125 42.1685 21.3359 42.3218 20.7006 42.7742C20.406 42.9841 20.0179 43.0576 19.6923 43.2307C19.3936 43.3898 19.0605 43.4489 18.7838 43.7018C18.5257 43.9375 18.1249 44.0163 17.7886 44.1677C17.7366 44.1912 17.6928 44.233 17.6454 44.2663C17.7445 44.306 17.8085 44.2806 17.8705 44.2511C18.4596 43.9722 19.0666 43.7435 19.6282 43.3909C20.3027 42.9677 21.1037 42.7902 21.7849 42.3395C22.417 41.9212 23.2295 41.8256 23.8274 41.3153C23.9115 41.2435 24.0914 41.4334 24.1065 41.2048C24.2893 41.325 24.3157 41.1021 24.4214 41.0538C25.2497 40.6757 26.1336 40.4141 26.8886 39.8801C26.9898 39.8084 27.1482 39.7173 27.238 39.7501C27.4414 39.8245 27.4199 39.5805 27.5657 39.5736C27.6867 39.568 27.8038 39.4804 27.9226 39.4291C28.6022 39.1358 29.2842 38.848 29.9594 38.5455C30.133 38.4677 30.3621 38.4633 30.4478 38.231C30.4575 38.2051 30.5749 38.2251 30.64 38.2125C30.7263 38.1959 30.8736 38.1842 30.884 38.1425C30.9252 37.9777 31.028 38.0617 31.1144 38.0395C31.2003 38.0172 31.2516 37.8789 31.3395 37.841C31.4813 37.7798 31.6165 37.6374 31.7969 37.7444C31.8451 37.5853 31.9914 37.5519 32.1191 37.4981C32.2487 37.4435 32.3737 37.3383 32.5267 37.4399C32.5558 37.2557 32.7216 37.2389 32.85 37.183C33.6983 36.8138 34.557 36.468 35.3947 36.0764C36.2192 35.6909 37.1227 35.4682 37.8592 34.8983C38.0034 34.9522 38.1132 34.8423 38.2315 34.8021C38.3843 34.7506 38.51 34.6232 38.6602 34.5577C38.8341 34.482 38.9988 34.3402 39.2133 34.4242C39.3009 34.1703 39.5586 34.1717 39.7482 34.089C41.9869 33.1136 44.2304 32.1488 46.4721 31.1798C46.6358 31.1092 46.7953 31.0286 48.7143 30.1428Z" fill="black"/>
<path fill-rule="evenodd" clip-rule="evenodd" d="M23.0953 32.9018C23.074 33.0955 23.0652 33.1777 23.0535 33.2843L23.5406 33.074C23.5383 33.0578 23.5359 33.0415 23.5334 33.0255C23.4808 33.0336 23.4277 33.0392 23.3758 33.0501C23.3254 33.0605 23.2766 33.0765 23.2146 33.0935C23.1959 33.0291 23.1547 32.9578 23.1726 32.9372C23.2611 32.8336 23.3534 32.7255 23.4659 32.6523C23.7183 32.4882 23.9859 32.3478 24.2422 32.1896C24.3695 32.1107 24.4852 32.0131 24.6009 31.9279C24.8491 32.087 24.5246 32.1384 24.5623 32.2653C24.9702 32.2402 25.1464 31.8139 25.5126 31.7204C25.2603 31.761 24.999 31.7785 24.7973 32.026C24.8047 31.9579 24.7882 31.871 24.8241 31.8258C24.8974 31.7332 24.9945 31.6571 25.0904 31.5856C25.2473 31.4689 25.4889 31.4987 25.5954 31.2894C25.6787 31.126 25.9191 31.174 26.0048 30.9626C26.0478 30.8563 26.2819 30.8277 26.4476 30.7562C26.4339 31.0988 26.1603 31.0837 25.9935 31.1978C25.843 31.3007 25.7094 31.4286 25.6041 31.6002C25.9593 31.4078 26.3423 31.2521 26.6621 31.0123C26.9658 30.7843 27.2409 30.5173 27.5678 30.2968C27.3236 30.3867 27.0789 30.4768 26.8347 30.5667L26.8081 30.5051C27.2764 30.2087 27.7451 29.9122 28.2136 29.616C28.2308 29.64 28.2478 29.6644 28.2648 29.6885C28.0562 29.8513 27.8477 30.0142 27.6395 30.1768C27.8698 30.1091 28.1434 30.1339 28.2716 29.8638C28.7383 29.685 29.0774 29.2556 29.6132 29.1852L29.7592 29.5236C29.6918 29.5975 29.5466 29.5132 29.5082 29.6708C29.4899 29.7454 29.2826 29.6945 29.3133 29.8728C29.3217 29.9211 29.2599 30.0295 29.2411 30.027C28.9293 29.9873 28.7653 30.2745 28.5089 30.347C28.4289 30.3696 28.3398 30.3599 28.237 30.3662C28.2549 30.4456 28.2771 30.5453 28.2993 30.6454C28.1043 30.5875 28.0341 30.9268 27.8156 30.7815C27.8209 30.8648 27.8254 30.9327 27.8313 31.025C27.6202 31.0392 27.3923 30.983 27.2341 31.1906C27.2782 31.2136 27.3206 31.2359 27.4264 31.2915C27.0918 31.3858 26.8024 31.4677 26.5033 31.5523C26.433 31.7294 26.3673 31.8941 26.3162 32.023C26.155 32.0903 26.0071 31.9314 25.9098 32.1565C25.8339 32.3324 25.6522 32.4763 25.4894 32.5962C25.385 32.6732 25.2316 32.6957 25.0963 32.7146C25.0003 32.7279 24.9711 32.8509 24.8188 32.8041C24.6594 32.7552 24.7622 32.9575 24.7258 33.0384C24.6916 33.1137 24.6337 33.2087 24.5645 33.2328C24.2868 33.3287 24.0947 33.5801 23.8013 33.6398C23.7861 33.6428 23.7671 33.6275 23.7502 33.6206C23.5899 34.0411 23.1083 34.0952 22.861 34.3912C22.6545 34.6384 22.275 34.5974 22.1439 34.9109C21.481 35.383 20.7702 35.7904 20.1811 36.3626C19.7254 36.4983 19.4626 36.9114 19.0634 37.1409C18.6946 37.3533 18.3309 37.6234 18.0297 37.9174C17.4846 38.4492 16.7799 38.7809 16.2914 39.3715C16.0424 39.4202 15.9595 39.6118 15.8628 39.8176C15.8093 39.9313 15.6577 39.9987 15.5684 40.0721C15.2737 39.9943 15.0464 39.8184 14.766 39.8446C14.7366 39.6575 14.7068 39.4687 14.6714 39.2444C15.1558 38.8174 15.6316 38.321 16.2168 37.9442C16.4877 37.7697 16.6912 37.4919 16.9604 37.3143C17.2952 37.0933 17.596 36.8227 17.9359 36.6204C18.299 36.4038 18.6075 36.1217 18.9445 35.8769C19.1523 35.7258 19.3692 35.5652 19.5812 35.434C19.9405 35.212 20.2301 34.9033 20.6016 34.7004C20.8252 34.5784 21.0061 34.3808 21.2136 34.2268C21.355 34.1214 21.5726 34.1449 21.6678 33.952C21.7485 33.7879 22.0338 33.8541 22.0584 33.6178C22.3648 33.5452 22.5803 33.3167 22.8364 33.1581C22.903 33.1169 22.9513 33.0464 23.0953 32.9018Z" fill="black"/>
</svg>
